HIERARCHY
ROOT Hips
{
  OFFSET 53.1525 84.2792 6.66421
  CHANNELS 6 Xposition Yposition Zposition Zrotation Xrotation Yrotation
  JOINT spine
  {
    OFFSET 0 5.95438 0.342407
    CHANNELS 3 Zrotation Xrotation Yrotation
    JOINT spine1
    {
      OFFSET 0 8.85602 0
      CHANNELS 3 Zrotation Xrotation Yrotation
      JOINT spine2
      {
        OFFSET 0 8.48567 0
        CHANNELS 3 Zrotation Xrotation Yrotation
        JOINT Neck
        {
          OFFSET 0 21.7863 1.0387
          CHANNELS 3 Zrotation Xrotation Yrotation
          JOINT Head
          {
            OFFSET 0 6.5822 0
            CHANNELS 3 Zrotation Xrotation Yrotation
            End Site
            {
              OFFSET 0 15.9326 -5.25436
            }
          }
        }
        JOINT RightShoulder
        {
          OFFSET -3.57307 9.16386 -0.497525
          CHANNELS 3 Zrotation Xrotation Yrotation
          JOINT RightArm
          {
            OFFSET 0 12.0192 0
            CHANNELS 3 Zrotation Xrotation Yrotation
            JOINT RightArmRoll
            {
              OFFSET 0 6.06755 0
              CHANNELS 3 Zrotation Xrotation Yrotation
              JOINT RightForeArm
              {
                OFFSET 0 17.6726 0
                CHANNELS 3 Zrotation Xrotation Yrotation
                JOINT RightForeArmRoll
                {
                  OFFSET 0 6.80872 0
                  CHANNELS 3 Zrotation Xrotation Yrotation
                  JOINT RightHand
                  {
                    OFFSET 0 13.6636 0
                    CHANNELS 3 Zrotation Xrotation Yrotation
                    End Site
                    {
                      OFFSET 0 0 0
                    }
                  }
                }
              }
            }
          }
        }
        JOINT LeftShoulder
        {
          OFFSET 3.57307 9.16386 -0.497525
          CHANNELS 3 Zrotation Xrotation Yrotation
          JOINT LeftArm
          {
            OFFSET 0 12.0192 0
            CHANNELS 3 Zrotation Xrotation Yrotation
            JOINT LeftArmRoll
            {
              OFFSET 0 6.06755 0
              CHANNELS 3 Zrotation Xrotation Yrotation
              JOINT LeftForeArm
              {
                OFFSET 0 17.6726 0
                CHANNELS 3 Zrotation Xrotation Yrotation
                JOINT LeftForeArmRoll
                {
                  OFFSET 0 6.80872 0
                  CHANNELS 3 Zrotation Xrotation Yrotation
                  JOINT LeftHand
                  {
                    OFFSET 0 13.6636 0
                    CHANNELS 3 Zrotation Xrotation Yrotation
                    End Site
                    {
                      OFFSET 0 0 0
                    }
                  }
                }
              }
            }
          }
        }
      }
    }
  }
  JOINT RightUpLeg
  {
    OFFSET -5.27774 -0.967797 -0.811858
    CHANNELS 3 Zrotation Xrotation Yrotation
    JOINT RightUpLegRoll
    {
      OFFSET 0 16.0214 0
      CHANNELS 3 Zrotation Xrotation Yrotation
      JOINT RightLeg
      {
        OFFSET 0 -19.8401 0
        CHANNELS 3 Zrotation Xrotation Yrotation
        JOINT RightLegRoll
        {
          OFFSET 0 19.905 0
          CHANNELS 3 Zrotation Xrotation Yrotation
          JOINT RightFoot
          {
            OFFSET 0 16.5675 0
            CHANNELS 3 Zrotation Xrotation Yrotation
            JOINT RightToeBase
            {
              OFFSET 0 13.8496 0
              CHANNELS 3 Zrotation Xrotation Yrotation
              End Site
              {
                OFFSET 0.00587034 6.70728 -0.773116
              }
            }
          }
        }
      }
    }
  }
  JOINT LeftUpLeg
  {
    OFFSET 5.27774 -0.967797 -0.811858
    CHANNELS 3 Zrotation Xrotation Yrotation
    JOINT LeftUpLegRoll
    {
      OFFSET 0 16.0215 0
      CHANNELS 3 Zrotation Xrotation Yrotation
      JOINT LeftLeg
      {
        OFFSET 0 19.84 0
        CHANNELS 3 Zrotation Xrotation Yrotation
        JOINT LeftLegRoll
        {
          OFFSET 0 20.089 0
          CHANNELS 3 Zrotation Xrotation Yrotation
          JOINT LeftFoot
          {
            OFFSET 0 16.3835 0
            CHANNELS 3 Zrotation Xrotation Yrotation
            JOINT LeftToeBase
            {
              OFFSET 0 13.8496 0
              CHANNELS 3 Zrotation Xrotation Yrotation
              End Site
              {
                OFFSET -0.0263083 6.70727 -0.773117
              }
            }
          }
        }
      }
    }
  }
}
MOTION
Frames: 7
Frame Time: 0.00208333
52.2502 84.3907 4.67772 0.26287 -8.03274 -2.0325 0.105876 -0.721068 0.0394233 0.211696 2.5831 0.0647658 0.211059 4.22818 0.0583656 -3.15032 12.4748 0.311828 5.59923 5.97659 -0.572149 74.1312 -0.997926 -2.1518 106.687 15.03 -6.79745 3.48643e-007 2.68556e-006 -1.76774e-006 -3.63795 -0.0314114 -1.9928 1.14378e-006 -9.32379e-007 -3.01161 8.03007 -4.95139 0.697619 -71.1487 -3.52872 3.08336 -111.474 16.9831 10.9161 -3.28173e-006 3.04554e-006 5.82133e-007 3.6408 -0.025804 1.99248 -2.88516e-006 -1.92231e-006 3.0116 -8.03006 -4.95139 -0.697628 178.47 -0.674617 4.18771 180 7.01537e-015 178.881 176.54 11.8306 180 -5.3233e-006 3.12947e-006 0.171412 -20.3008 69.9338 21.3052 8.1365 25.2327 -3.48774 -179.567 -2.93668 0.0580513 4.54188e-006 -4.6773e-006 -1.15468 -2.0416 -9.65778 0.079831 -1.53662e-007 5.52734e-006 -0.165632 19.8389 69.4846 -20.8485 -8.13649 25.2327 3.48774 
52.2523 84.3929 4.67797 0.262392 -8.03379 -2.03503 0.105944 -0.721125 0.0394242 0.211704 2.5814 0.0647717 0.211066 4.22647 0.0583713 -3.16047 12.4916 0.315205 5.60648 5.96455 -0.571799 74.1276 -0.99831 -2.15163 106.67 15.0218 -6.77853 3.48643e-007 2.68556e-006 -1.76774e-006 -3.63795 -0.0314114 -1.9928 1.14378e-006 -9.32379e-007 -3.01161 8.03007 -4.95139 0.697619 -71.1516 -3.53087 3.08463 -111.47 16.9747 10.9101 -3.28173e-006 3.04554e-006 5.82133e-007 3.6408 -0.025804 1.99248 -2.88516e-006 -1.92231e-006 3.0116 -8.03006 -4.95139 -0.697628 178.467 -0.674916 4.19171 180 7.01537e-015 178.881 176.536 11.8344 -179.999 -5.3233e-006 3.12947e-006 0.171412 -20.3012 69.9341 21.3055 8.1365 25.2327 -3.48774 -179.567 -2.93374 0.0579399 4.54188e-006 -4.6773e-006 -1.15468 -2.04186 -9.6618 0.0796666 -1.53662e-007 5.52734e-006 -0.16553 19.8389 69.4847 -20.8485 -8.13649 25.2327 3.48774 
52.2519 84.392 4.67438 0.261934 -8.03465 -2.03747 0.106046 -0.72121 0.0394256 0.211769 2.57959 0.0647754 0.21113 4.22467 0.0583732 -3.17138 12.5087 0.318727 5.61451 5.95234 -0.571539 74.1236 -0.998431 -2.1513 106.653 15.0132 -6.7607 3.48643e-007 2.68556e-006 -1.76774e-006 -3.63795 -0.0314114 -1.9928 1.14378e-006 -9.32379e-007 -3.01161 8.03007 -4.95139 0.697619 -71.1553 -3.53307 3.08598 -111.466 16.9663 10.9035 -3.28173e-006 3.04554e-006 5.82133e-007 3.6408 -0.025804 1.99248 -2.88516e-006 -1.92231e-006 3.0116 -8.03006 -4.95139 -0.697628 178.464 -0.67496 4.19567 180 7.01537e-015 178.881 176.531 11.8383 -179.998 -5.3233e-006 3.12947e-006 0.171412 -20.3016 69.9345 21.3059 8.1365 25.2327 -3.48774 -179.568 -2.93024 0.0578792 4.54188e-006 -4.6773e-006 -1.15468 -2.04211 -9.66604 0.0795038 -1.53662e-007 5.52734e-006 -0.165411 19.8388 69.4846 -20.8485 -8.13649 25.2327 3.48774 
52.2577 84.3933 4.67617 0.261491 -8.03538 -2.03985 0.106172 -0.721314 0.0394274 0.211874 2.57772 0.0647776 0.211235 4.2228 0.0583723 -3.18284 12.526 0.322351 5.62308 5.94002 -0.571342 74.1193 -0.99837 -2.15087 106.637 15.0045 -6.74365 3.48643e-007 2.68556e-006 -1.76774e-006 -3.63795 -0.0314114 -1.9928 1.14378e-006 -9.32379e-007 -3.01161 8.03007 -4.95139 0.697619 -71.1594 -3.53531 3.08738 -111.462 16.9581 10.8966 -3.28173e-006 3.04554e-006 5.82133e-007 3.6408 -0.025804 1.99248 -2.88516e-006 -1.92231e-006 3.0116 -8.03006 -4.95139 -0.697628 178.461 -0.674826 4.19961 180 7.01537e-015 178.881 176.527 11.8423 -179.997 -5.3233e-006 3.12947e-006 0.171412 -20.302 69.9349 21.3063 8.1365 25.2327 -3.48774 -179.569 -2.92634 0.0578538 4.54188e-006 -4.6773e-006 -1.15468 -2.04237 -9.67045 0.0793422 -1.53662e-007 5.52734e-006 -0.165282 19.8387 69.4844 -20.8483 -8.13649 25.2327 3.48774 
52.2539 84.3928 4.67753 0.261057 -8.03603 -2.04219 0.10631 -0.72143 0.0394293 0.212003 2.57581 0.0647788 0.211363 4.22089 0.0583699 -3.19461 12.5434 0.326034 5.63196 5.92764 -0.571182 74.1149 -0.998203 -2.15037 106.622 14.9956 -6.72704 3.48643e-007 2.68556e-006 -1.76774e-006 -3.63795 -0.0314114 -1.9928 1.14378e-006 -9.32379e-007 -3.01161 8.03007 -4.95139 0.697619 -71.1638 -3.53757 3.08881 -111.457 16.9499 10.8896 -3.28173e-006 3.04554e-006 5.82133e-007 3.6408 -0.025804 1.99248 -2.88516e-006 -1.92231e-006 3.0116 -8.03006 -4.95139 -0.697628 178.458 -0.674589 4.20354 180 7.01537e-015 178.881 176.523 11.8463 -179.996 -5.3233e-006 3.12947e-006 0.171412 -20.3025 69.9354 21.3068 8.1365 25.2327 -3.48774 -179.569 -2.92222 0.0578487 4.54188e-006 -4.6773e-006 -1.15468 -2.04262 -9.67495 0.0791812 -1.53662e-007 5.52734e-006 -0.165145 19.8385 69.4843 -20.8481 -8.13649 25.2327 3.48774 
52.2551 84.3911 4.67902 0.260624 -8.03667 -2.04452 0.106452 -0.721548 0.0394313 0.212137 2.57389 0.0647798 0.211496 4.21897 0.0583671 -3.20645 12.5608 0.329731 5.64092 5.91524 -0.57103 74.1104 -0.99801 -2.14985 106.607 14.9867 -6.71055 3.48643e-007 2.68556e-006 -1.76774e-006 -3.63795 -0.0314114 -1.9928 1.14378e-006 -9.32379e-007 -3.01161 8.03007 -4.95139 0.697619 -71.1682 -3.53984 3.09025 -111.453 16.9417 10.8825 -3.28173e-006 3.04554e-006 5.82133e-007 3.6408 -0.025804 1.99248 -2.88516e-006 -1.92231e-006 3.0116 -8.03006 -4.95139 -0.697628 178.456 -0.674327 4.20746 180 7.01537e-015 178.881 176.518 11.8503 -179.994 -5.3233e-006 3.12947e-006 0.171412 -20.303 69.9359 21.3073 8.1365 25.2327 -3.48774 -179.57 -2.91804 0.0578486 4.54188e-006 -4.6773e-006 -1.15468 -2.04287 -9.67947 0.0790203 -1.53662e-007 5.52734e-006 -0.165007 19.8383 69.4841 -20.8479 -8.13649 25.2327 3.48774 
52.2547 84.3902 4.67921 0.260187 -8.03734 -2.04687 0.106588 -0.721661 0.0394332 0.21226 2.57199 0.0647813 0.211618 4.21707 0.058365 -3.21815 12.5782 0.3334 5.64972 5.90287 -0.570861 74.106 -0.99787 -2.14937 106.592 14.9778 -6.69383 3.48643e-007 2.68556e-006 -1.76774e-006 -3.63795 -0.0314114 -1.9928 1.14378e-006 -9.32379e-007 -3.01161 8.03007 -4.95139 0.697619 -71.1725 -3.54209 3.09167 -111.448 16.9334 10.8755 -3.28173e-006 3.04554e-006 5.82133e-007 3.6408 -0.025804 1.99248 -2.88516e-006 -1.92231e-006 3.0116 -8.03006 -4.95139 -0.697628 178.453 -0.674116 4.21139 180 7.01537e-015 178.881 176.514 11.8543 -179.993 -5.3233e-006 3.12947e-006 0.171412 -20.3035 69.9364 21.3077 8.1365 25.2327 -3.48774 -179.571 -2.91397 0.0578384 4.54188e-006 -4.6773e-006 -1.15468 -2.04313 -9.68394 0.0788592 -1.53662e-007 5.52734e-006 -0.164872 19.8382 69.4839 -20.8477 -8.13649 25.2327 3.48774 
